<mxfile host="app.diagrams.net" agent="Mozilla/5.0 (Windows NT 10.0; Win64; x64) AppleWebKit/537.36 (KHTML, like Gecko) Chrome/131.0.0.0 Safari/537.36" version="26.0.6">
  <diagram name="페이지-1" id="XlhtNnwYM-9Wpjqn4eLe">
    <mxGraphModel dx="957" dy="446" grid="0" gridSize="10" guides="1" tooltips="1" connect="1" arrows="1" fold="1" page="0" pageScale="1" pageWidth="827" pageHeight="1169" math="0" shadow="0">
      <root>
        <mxCell id="0" />
        <mxCell id="1" parent="0" />
        <mxCell id="HAFQu6MLjpKeiHtemj7R-1" value="Entity" style="whiteSpace=wrap;html=1;align=center;" parent="1" vertex="1">
          <mxGeometry x="-94" y="543" width="100" height="40" as="geometry" />
        </mxCell>
        <mxCell id="HAFQu6MLjpKeiHtemj7R-2" value="Relationship" style="shape=rhombus;perimeter=rhombusPerimeter;whiteSpace=wrap;html=1;align=center;" parent="1" vertex="1">
          <mxGeometry x="44" y="533" width="120" height="60" as="geometry" />
        </mxCell>
        <mxCell id="HAFQu6MLjpKeiHtemj7R-3" value="Attribute" style="ellipse;whiteSpace=wrap;html=1;align=center;" parent="1" vertex="1">
          <mxGeometry x="202" y="543" width="100" height="40" as="geometry" />
        </mxCell>
        <mxCell id="HAFQu6MLjpKeiHtemj7R-4" value="Attribute" style="ellipse;whiteSpace=wrap;html=1;align=center;fontStyle=4;" parent="1" vertex="1">
          <mxGeometry x="340" y="543" width="100" height="40" as="geometry" />
        </mxCell>
        <mxCell id="zHzPjlVKXWnL4eexpncG-2" value="Entity" style="whiteSpace=wrap;html=1;align=center;" vertex="1" parent="1">
          <mxGeometry x="881" y="409" width="100" height="40" as="geometry" />
        </mxCell>
        <mxCell id="zHzPjlVKXWnL4eexpncG-3" value="Relationship" style="shape=rhombus;perimeter=rhombusPerimeter;whiteSpace=wrap;html=1;align=center;" vertex="1" parent="1">
          <mxGeometry x="1072" y="399" width="120" height="60" as="geometry" />
        </mxCell>
        <mxCell id="zHzPjlVKXWnL4eexpncG-4" value="Entity" style="whiteSpace=wrap;html=1;align=center;" vertex="1" parent="1">
          <mxGeometry x="1283" y="409" width="100" height="40" as="geometry" />
        </mxCell>
        <mxCell id="zHzPjlVKXWnL4eexpncG-8" value="" style="endArrow=none;html=1;rounded=0;exitX=1;exitY=0.5;exitDx=0;exitDy=0;entryX=0;entryY=0.5;entryDx=0;entryDy=0;" edge="1" parent="1" source="zHzPjlVKXWnL4eexpncG-2" target="zHzPjlVKXWnL4eexpncG-3">
          <mxGeometry x="-0.7143" y="11" relative="1" as="geometry">
            <mxPoint x="1262" y="416" as="sourcePoint" />
            <mxPoint x="1422" y="416" as="targetPoint" />
            <mxPoint as="offset" />
          </mxGeometry>
        </mxCell>
        <mxCell id="zHzPjlVKXWnL4eexpncG-32" value="1" style="edgeLabel;html=1;align=center;verticalAlign=middle;resizable=0;points=[];" vertex="1" connectable="0" parent="zHzPjlVKXWnL4eexpncG-8">
          <mxGeometry x="-0.0178" y="2" relative="1" as="geometry">
            <mxPoint x="-37" y="-9" as="offset" />
          </mxGeometry>
        </mxCell>
        <mxCell id="zHzPjlVKXWnL4eexpncG-9" value="" style="endArrow=none;html=1;rounded=0;exitX=1;exitY=0.5;exitDx=0;exitDy=0;entryX=0;entryY=0.5;entryDx=0;entryDy=0;" edge="1" parent="1" source="zHzPjlVKXWnL4eexpncG-3" target="zHzPjlVKXWnL4eexpncG-4">
          <mxGeometry x="0.6484" y="11" relative="1" as="geometry">
            <mxPoint x="1044" y="439" as="sourcePoint" />
            <mxPoint x="1082" y="439" as="targetPoint" />
            <mxPoint as="offset" />
          </mxGeometry>
        </mxCell>
        <mxCell id="zHzPjlVKXWnL4eexpncG-31" value="1" style="edgeLabel;html=1;align=center;verticalAlign=middle;resizable=0;points=[];" vertex="1" connectable="0" parent="zHzPjlVKXWnL4eexpncG-9">
          <mxGeometry x="0.2589" y="-1" relative="1" as="geometry">
            <mxPoint x="25" y="-12" as="offset" />
          </mxGeometry>
        </mxCell>
        <mxCell id="zHzPjlVKXWnL4eexpncG-13" value="Entity" style="whiteSpace=wrap;html=1;align=center;" vertex="1" parent="1">
          <mxGeometry x="881" y="530" width="100" height="40" as="geometry" />
        </mxCell>
        <mxCell id="zHzPjlVKXWnL4eexpncG-14" value="Relationship" style="shape=rhombus;perimeter=rhombusPerimeter;whiteSpace=wrap;html=1;align=center;" vertex="1" parent="1">
          <mxGeometry x="1072" y="520" width="120" height="60" as="geometry" />
        </mxCell>
        <mxCell id="zHzPjlVKXWnL4eexpncG-15" value="Entity" style="whiteSpace=wrap;html=1;align=center;" vertex="1" parent="1">
          <mxGeometry x="1283" y="530" width="100" height="40" as="geometry" />
        </mxCell>
        <mxCell id="zHzPjlVKXWnL4eexpncG-16" value="" style="endArrow=none;html=1;rounded=0;exitX=1;exitY=0.5;exitDx=0;exitDy=0;entryX=0;entryY=0.5;entryDx=0;entryDy=0;" edge="1" parent="1" source="zHzPjlVKXWnL4eexpncG-13" target="zHzPjlVKXWnL4eexpncG-14">
          <mxGeometry relative="1" as="geometry">
            <mxPoint x="1262" y="537" as="sourcePoint" />
            <mxPoint x="1422" y="537" as="targetPoint" />
          </mxGeometry>
        </mxCell>
        <mxCell id="zHzPjlVKXWnL4eexpncG-29" value="1" style="edgeLabel;html=1;align=center;verticalAlign=middle;resizable=0;points=[];" vertex="1" connectable="0" parent="zHzPjlVKXWnL4eexpncG-16">
          <mxGeometry x="-0.5926" y="2" relative="1" as="geometry">
            <mxPoint x="-9" y="-8" as="offset" />
          </mxGeometry>
        </mxCell>
        <mxCell id="zHzPjlVKXWnL4eexpncG-18" value="Entity" style="whiteSpace=wrap;html=1;align=center;" vertex="1" parent="1">
          <mxGeometry x="881" y="656" width="100" height="40" as="geometry" />
        </mxCell>
        <mxCell id="zHzPjlVKXWnL4eexpncG-19" value="Relationship" style="shape=rhombus;perimeter=rhombusPerimeter;whiteSpace=wrap;html=1;align=center;" vertex="1" parent="1">
          <mxGeometry x="1072" y="646" width="120" height="60" as="geometry" />
        </mxCell>
        <mxCell id="zHzPjlVKXWnL4eexpncG-20" value="Entity" style="whiteSpace=wrap;html=1;align=center;" vertex="1" parent="1">
          <mxGeometry x="1283" y="656" width="100" height="40" as="geometry" />
        </mxCell>
        <mxCell id="zHzPjlVKXWnL4eexpncG-22" value="" style="endArrow=none;html=1;rounded=0;exitX=1;exitY=0.5;exitDx=0;exitDy=0;entryX=0;entryY=0.5;entryDx=0;entryDy=0;" edge="1" parent="1" source="zHzPjlVKXWnL4eexpncG-19" target="zHzPjlVKXWnL4eexpncG-20">
          <mxGeometry relative="1" as="geometry">
            <mxPoint x="1044" y="686" as="sourcePoint" />
            <mxPoint x="1082" y="686" as="targetPoint" />
          </mxGeometry>
        </mxCell>
        <mxCell id="zHzPjlVKXWnL4eexpncG-23" value="Entity" style="whiteSpace=wrap;html=1;align=center;" vertex="1" parent="1">
          <mxGeometry x="881" y="784" width="100" height="40" as="geometry" />
        </mxCell>
        <mxCell id="zHzPjlVKXWnL4eexpncG-24" value="Relationship" style="shape=rhombus;perimeter=rhombusPerimeter;whiteSpace=wrap;html=1;align=center;" vertex="1" parent="1">
          <mxGeometry x="1072" y="774" width="120" height="60" as="geometry" />
        </mxCell>
        <mxCell id="zHzPjlVKXWnL4eexpncG-25" value="Entity" style="whiteSpace=wrap;html=1;align=center;" vertex="1" parent="1">
          <mxGeometry x="1283" y="784" width="100" height="40" as="geometry" />
        </mxCell>
        <mxCell id="zHzPjlVKXWnL4eexpncG-28" value="" style="edgeStyle=entityRelationEdgeStyle;fontSize=12;html=1;endArrow=ERmany;rounded=0;exitX=1;exitY=0.5;exitDx=0;exitDy=0;" edge="1" parent="1" source="zHzPjlVKXWnL4eexpncG-14" target="zHzPjlVKXWnL4eexpncG-15">
          <mxGeometry width="100" height="100" relative="1" as="geometry">
            <mxPoint x="1194" y="554" as="sourcePoint" />
            <mxPoint x="1200" y="431" as="targetPoint" />
          </mxGeometry>
        </mxCell>
        <mxCell id="zHzPjlVKXWnL4eexpncG-30" value="N" style="edgeLabel;html=1;align=center;verticalAlign=middle;resizable=0;points=[];" vertex="1" connectable="0" parent="zHzPjlVKXWnL4eexpncG-28">
          <mxGeometry x="0.2477" y="2" relative="1" as="geometry">
            <mxPoint x="21" y="-9" as="offset" />
          </mxGeometry>
        </mxCell>
        <mxCell id="zHzPjlVKXWnL4eexpncG-33" value="" style="edgeStyle=entityRelationEdgeStyle;fontSize=12;html=1;endArrow=ERmany;rounded=0;exitX=0;exitY=0.5;exitDx=0;exitDy=0;" edge="1" parent="1" source="zHzPjlVKXWnL4eexpncG-19" target="zHzPjlVKXWnL4eexpncG-18">
          <mxGeometry width="100" height="100" relative="1" as="geometry">
            <mxPoint x="977" y="633" as="sourcePoint" />
            <mxPoint x="963" y="643" as="targetPoint" />
          </mxGeometry>
        </mxCell>
        <mxCell id="zHzPjlVKXWnL4eexpncG-34" value="N" style="edgeLabel;html=1;align=center;verticalAlign=middle;resizable=0;points=[];" vertex="1" connectable="0" parent="zHzPjlVKXWnL4eexpncG-33">
          <mxGeometry x="0.2477" y="2" relative="1" as="geometry">
            <mxPoint x="48" y="-15" as="offset" />
          </mxGeometry>
        </mxCell>
        <mxCell id="zHzPjlVKXWnL4eexpncG-35" value="1" style="edgeLabel;html=1;align=center;verticalAlign=middle;resizable=0;points=[];" vertex="1" connectable="0" parent="1">
          <mxGeometry x="923.0034042553191" y="550" as="geometry">
            <mxPoint x="271" y="114" as="offset" />
          </mxGeometry>
        </mxCell>
        <mxCell id="zHzPjlVKXWnL4eexpncG-36" value="" style="edgeStyle=entityRelationEdgeStyle;fontSize=12;html=1;endArrow=ERmany;rounded=0;entryX=1;entryY=0.5;entryDx=0;entryDy=0;exitX=0;exitY=0.5;exitDx=0;exitDy=0;" edge="1" parent="1" source="zHzPjlVKXWnL4eexpncG-24" target="zHzPjlVKXWnL4eexpncG-23">
          <mxGeometry width="100" height="100" relative="1" as="geometry">
            <mxPoint x="1063" y="846" as="sourcePoint" />
            <mxPoint x="1006" y="796" as="targetPoint" />
          </mxGeometry>
        </mxCell>
        <mxCell id="zHzPjlVKXWnL4eexpncG-37" value="N" style="edgeLabel;html=1;align=center;verticalAlign=middle;resizable=0;points=[];" vertex="1" connectable="0" parent="zHzPjlVKXWnL4eexpncG-36">
          <mxGeometry x="0.2477" y="2" relative="1" as="geometry">
            <mxPoint x="48" y="-15" as="offset" />
          </mxGeometry>
        </mxCell>
        <mxCell id="zHzPjlVKXWnL4eexpncG-39" value="" style="edgeStyle=entityRelationEdgeStyle;fontSize=12;html=1;endArrow=ERmany;rounded=0;exitX=1;exitY=0.5;exitDx=0;exitDy=0;entryX=0;entryY=0.5;entryDx=0;entryDy=0;" edge="1" parent="1" source="zHzPjlVKXWnL4eexpncG-24" target="zHzPjlVKXWnL4eexpncG-25">
          <mxGeometry width="100" height="100" relative="1" as="geometry">
            <mxPoint x="1179" y="791" as="sourcePoint" />
            <mxPoint x="1259" y="806" as="targetPoint" />
          </mxGeometry>
        </mxCell>
        <mxCell id="zHzPjlVKXWnL4eexpncG-40" value="M" style="edgeLabel;html=1;align=center;verticalAlign=middle;resizable=0;points=[];" vertex="1" connectable="0" parent="zHzPjlVKXWnL4eexpncG-39">
          <mxGeometry x="0.2477" y="2" relative="1" as="geometry">
            <mxPoint x="-52" y="-11" as="offset" />
          </mxGeometry>
        </mxCell>
        <mxCell id="zHzPjlVKXWnL4eexpncG-41" value="고객" style="whiteSpace=wrap;html=1;align=center;" vertex="1" parent="1">
          <mxGeometry x="-103" y="805" width="100" height="40" as="geometry" />
        </mxCell>
        <mxCell id="zHzPjlVKXWnL4eexpncG-42" value="&lt;u&gt;&lt;font style=&quot;color: rgb(255, 0, 0);&quot;&gt;고객코드&lt;/font&gt;&lt;/u&gt;" style="ellipse;whiteSpace=wrap;html=1;align=center;" vertex="1" parent="1">
          <mxGeometry x="-203" y="721" width="100" height="40" as="geometry" />
        </mxCell>
        <mxCell id="zHzPjlVKXWnL4eexpncG-43" value="고객명" style="ellipse;whiteSpace=wrap;html=1;align=center;" vertex="1" parent="1">
          <mxGeometry x="-17" y="721" width="100" height="40" as="geometry" />
        </mxCell>
        <mxCell id="zHzPjlVKXWnL4eexpncG-44" value="&lt;u&gt;&lt;font style=&quot;color: rgb(255, 0, 0);&quot;&gt;전화번호&lt;/font&gt;&lt;/u&gt;" style="ellipse;whiteSpace=wrap;html=1;align=center;" vertex="1" parent="1">
          <mxGeometry x="78" y="803" width="100" height="40" as="geometry" />
        </mxCell>
        <mxCell id="zHzPjlVKXWnL4eexpncG-45" value="&lt;u&gt;&lt;font style=&quot;color: rgb(255, 0, 0);&quot;&gt;이메일&lt;/font&gt;&lt;/u&gt;" style="ellipse;whiteSpace=wrap;html=1;align=center;" vertex="1" parent="1">
          <mxGeometry x="25" y="900" width="100" height="40" as="geometry" />
        </mxCell>
        <mxCell id="zHzPjlVKXWnL4eexpncG-46" value="&lt;font style=&quot;color: rgb(255, 58, 58);&quot;&gt;지역&lt;/font&gt;" style="ellipse;whiteSpace=wrap;html=1;align=center;" vertex="1" parent="1">
          <mxGeometry x="-228" y="897" width="100" height="40" as="geometry" />
        </mxCell>
        <mxCell id="zHzPjlVKXWnL4eexpncG-47" value="가입일" style="ellipse;whiteSpace=wrap;html=1;align=center;" vertex="1" parent="1">
          <mxGeometry x="-287" y="809" width="100" height="40" as="geometry" />
        </mxCell>
        <mxCell id="zHzPjlVKXWnL4eexpncG-48" value="" style="endArrow=none;html=1;rounded=0;entryX=0.5;entryY=1;entryDx=0;entryDy=0;exitX=0.75;exitY=0;exitDx=0;exitDy=0;" edge="1" parent="1" source="zHzPjlVKXWnL4eexpncG-41" target="zHzPjlVKXWnL4eexpncG-43">
          <mxGeometry relative="1" as="geometry">
            <mxPoint x="160" y="961" as="sourcePoint" />
            <mxPoint x="320" y="961" as="targetPoint" />
          </mxGeometry>
        </mxCell>
        <mxCell id="zHzPjlVKXWnL4eexpncG-49" value="" style="endArrow=none;html=1;rounded=0;entryX=0.5;entryY=1;entryDx=0;entryDy=0;exitX=0.25;exitY=0;exitDx=0;exitDy=0;" edge="1" parent="1" source="zHzPjlVKXWnL4eexpncG-41" target="zHzPjlVKXWnL4eexpncG-42">
          <mxGeometry relative="1" as="geometry">
            <mxPoint x="-43" y="815" as="sourcePoint" />
            <mxPoint x="43" y="771" as="targetPoint" />
          </mxGeometry>
        </mxCell>
        <mxCell id="zHzPjlVKXWnL4eexpncG-50" value="" style="endArrow=none;html=1;rounded=0;entryX=0;entryY=0.5;entryDx=0;entryDy=0;exitX=1;exitY=0.5;exitDx=0;exitDy=0;" edge="1" parent="1" source="zHzPjlVKXWnL4eexpncG-47" target="zHzPjlVKXWnL4eexpncG-41">
          <mxGeometry relative="1" as="geometry">
            <mxPoint x="-33" y="825" as="sourcePoint" />
            <mxPoint x="53" y="781" as="targetPoint" />
          </mxGeometry>
        </mxCell>
        <mxCell id="zHzPjlVKXWnL4eexpncG-51" value="" style="endArrow=none;html=1;rounded=0;entryX=0;entryY=0.5;entryDx=0;entryDy=0;exitX=1;exitY=0.5;exitDx=0;exitDy=0;" edge="1" parent="1" source="zHzPjlVKXWnL4eexpncG-41" target="zHzPjlVKXWnL4eexpncG-44">
          <mxGeometry relative="1" as="geometry">
            <mxPoint x="-23" y="835" as="sourcePoint" />
            <mxPoint x="63" y="791" as="targetPoint" />
          </mxGeometry>
        </mxCell>
        <mxCell id="zHzPjlVKXWnL4eexpncG-52" value="" style="endArrow=none;html=1;rounded=0;entryX=0.5;entryY=0;entryDx=0;entryDy=0;exitX=0.75;exitY=1;exitDx=0;exitDy=0;" edge="1" parent="1" source="zHzPjlVKXWnL4eexpncG-41" target="zHzPjlVKXWnL4eexpncG-45">
          <mxGeometry relative="1" as="geometry">
            <mxPoint x="-13" y="845" as="sourcePoint" />
            <mxPoint x="73" y="801" as="targetPoint" />
          </mxGeometry>
        </mxCell>
        <mxCell id="zHzPjlVKXWnL4eexpncG-53" value="" style="endArrow=none;html=1;rounded=0;entryX=0.25;entryY=1;entryDx=0;entryDy=0;exitX=0.5;exitY=0;exitDx=0;exitDy=0;" edge="1" parent="1" source="zHzPjlVKXWnL4eexpncG-46" target="zHzPjlVKXWnL4eexpncG-41">
          <mxGeometry relative="1" as="geometry">
            <mxPoint x="-3" y="855" as="sourcePoint" />
            <mxPoint x="83" y="811" as="targetPoint" />
          </mxGeometry>
        </mxCell>
        <mxCell id="zHzPjlVKXWnL4eexpncG-54" value="주소" style="ellipse;whiteSpace=wrap;html=1;align=center;" vertex="1" parent="1">
          <mxGeometry x="-103" y="942" width="100" height="40" as="geometry" />
        </mxCell>
        <mxCell id="zHzPjlVKXWnL4eexpncG-55" value="" style="endArrow=none;html=1;rounded=0;entryX=0.5;entryY=1;entryDx=0;entryDy=0;exitX=0.5;exitY=0;exitDx=0;exitDy=0;" edge="1" parent="1" source="zHzPjlVKXWnL4eexpncG-54" target="zHzPjlVKXWnL4eexpncG-41">
          <mxGeometry relative="1" as="geometry">
            <mxPoint x="-168" y="907" as="sourcePoint" />
            <mxPoint x="-68" y="855" as="targetPoint" />
          </mxGeometry>
        </mxCell>
        <mxCell id="zHzPjlVKXWnL4eexpncG-56" value="기본주소" style="ellipse;whiteSpace=wrap;html=1;align=center;" vertex="1" parent="1">
          <mxGeometry x="-167" y="1017" width="100" height="40" as="geometry" />
        </mxCell>
        <mxCell id="zHzPjlVKXWnL4eexpncG-57" value="상세주소" style="ellipse;whiteSpace=wrap;html=1;align=center;" vertex="1" parent="1">
          <mxGeometry x="-38" y="1017" width="100" height="40" as="geometry" />
        </mxCell>
        <mxCell id="zHzPjlVKXWnL4eexpncG-58" value="" style="endArrow=none;html=1;rounded=0;entryX=0;entryY=1;entryDx=0;entryDy=0;exitX=0.5;exitY=0;exitDx=0;exitDy=0;" edge="1" parent="1" source="zHzPjlVKXWnL4eexpncG-56" target="zHzPjlVKXWnL4eexpncG-54">
          <mxGeometry relative="1" as="geometry">
            <mxPoint x="-43" y="952" as="sourcePoint" />
            <mxPoint x="-43" y="855" as="targetPoint" />
          </mxGeometry>
        </mxCell>
        <mxCell id="zHzPjlVKXWnL4eexpncG-59" value="" style="endArrow=none;html=1;rounded=0;entryX=1;entryY=1;entryDx=0;entryDy=0;exitX=0.5;exitY=0;exitDx=0;exitDy=0;" edge="1" parent="1" source="zHzPjlVKXWnL4eexpncG-57" target="zHzPjlVKXWnL4eexpncG-54">
          <mxGeometry relative="1" as="geometry">
            <mxPoint x="-33" y="962" as="sourcePoint" />
            <mxPoint x="-33" y="865" as="targetPoint" />
          </mxGeometry>
        </mxCell>
      </root>
    </mxGraphModel>
  </diagram>
</mxfile>
